<svg width="581" height="499" viewBox="0 0 581 499" fill="none" xmlns="http://www.w3.org/2000/svg">
<g clip-path="url(#clip0)">
<path fill-rule="evenodd" clip-rule="evenodd" d="M295.976 2.65659C348.69 -0.545722 406.469 -6.50514 448.921 24.9423C491.264 56.309 493.786 116.119 514.558 164.577C538.143 219.598 592.918 269.474 578.669 327.622C564.391 385.887 497.683 411.9 446.36 442.876C399.472 471.175 350.371 504.469 295.976 498.241C243.616 492.246 213.707 438.475 168.667 411.082C117.473 379.944 42.69 380.178 14.697 327.162C-13.7832 273.223 3.31773 203.94 30.449 149.308C55.4818 98.9023 106.712 69.9331 155.948 42.7399C199.521 18.6745 246.302 5.67417 295.976 2.65659Z" fill="url(#paint0_linear)"/>
<mask id="mask0" mask-type="alpha" maskUnits="userSpaceOnUse" x="0" y="0" width="581" height="499">
<path fill-rule="evenodd" clip-rule="evenodd" d="M295.976 2.65659C348.69 -0.545722 406.469 -6.50514 448.921 24.9423C491.264 56.309 493.786 116.119 514.558 164.577C538.143 219.598 592.918 269.474 578.669 327.622C564.391 385.887 497.683 411.9 446.36 442.876C399.472 471.175 350.371 504.469 295.976 498.241C243.616 492.246 213.707 438.475 168.667 411.082C117.473 379.944 42.69 380.178 14.697 327.162C-13.7832 273.223 3.31773 203.94 30.449 149.308C55.4818 98.9023 106.712 69.9331 155.948 42.7399C199.521 18.6745 246.302 5.67417 295.976 2.65659Z" fill="url(#paint1_linear)"/>
</mask>
<g mask="url(#mask0)">
<path d="M316 224.5L364 316.5L378.5 193L356 188.5L343.5 316.5L323 313L343.5 188.5H334.5L380 137.5L347.5 131L324.5 187L367 194.5L391 139.5L400 143.5L387 193L392.5 177L371.5 137.5L332.5 129.5L316.5 174.5L328.5 127.5L299.5 94L316 157.5" stroke="black"/>
<path d="M319 68.5L302.5 551" stroke="#2D343A" stroke-width="14" stroke-linecap="round"/>
<path d="M141 440.5L306.5 361L639.5 357M195.5 477L306.5 402.5L612.5 401M158.5 449.5L306.5 384.5L628 380" stroke="black" stroke-width="2" stroke-linecap="round"/>
<path d="M313 312L374 318.5M394 309.5L356.5 327M313 186.5L370.5 192.367M386.5 194L370.5 192.367M394 175L370.5 192.367" stroke="#2D343A" stroke-width="6" stroke-linecap="round"/>
<path d="M320 126.5L401.5 143" stroke="#2D343A" stroke-width="8" stroke-linecap="round"/>
<path d="M17.5 431L396 142.5L390.5 -34.5M8.5 385.5L316.5 171.551L366 136.5L359 -34.5M-19.5 357.5L336 130L325.5 -34.5" stroke="black" stroke-linecap="round"/>
<path d="M317.5 125.5L211 -87.5" stroke="black" stroke-width="3" stroke-linecap="round"/>
<path d="M317.5 125.5C312.167 118 300.6 100 297 88C292.5 73 292.5 64.5 288 59.5C283.5 54.5 270 42 263.5 22C257 2 245.5 -24 239.5 -38" stroke="black"/>
<path d="M396 141.5C394.167 124 391.1 86.7 393.5 77.5C396.5 66 396 5 392.5 1" stroke="black"/>
<path d="M366 193C365.333 201.5 361.6 216.9 352 210.5M352 210.5C347.836 207.724 345.779 204.466 344.785 201.5M352 210.5C333.2 231.3 326.167 224.833 325 219C323 212.833 320.4 199.5 326 195.5C331.6 191.5 335.667 205.166 337 212.5C345.668 210.333 361.804 205.1 357 201.5C352.196 197.9 335.998 204.333 328.5 208M344.785 201.5C342.914 195.918 344.806 191.367 343.5 193C341.5 195.5 326 172.5 332.5 189.5C339 206.5 341.07 197 344.785 201.5Z" stroke="black"/>
<path d="M370.5 193.5L314.5 225.5M387 193.5L382.5 230.5C383.833 238.667 386.1 256.5 384.5 262.5C382.5 270 379.5 302.5 381 312.5M394 177.5C394.333 192.833 394.6 224.7 393 229.5C391 235.5 388 306.5 390.5 309.5" stroke="black"/>
<path d="M335.5 129.5C337.111 111.855 329 69 331.824 66.092C340.573 57.0806 326.888 -0.5 326.888 -9.99515" stroke="black"/>
<path d="M364.5 136.5C362.667 119 359.6 81.7 362 72.5C365 61 364.5 0 361 -4" stroke="black"/>
<path d="M315.5 363C327.833 360 356.9 354.9 374.5 358.5C392.1 362.1 425.167 361.334 439.5 360.5C456.167 358.167 492.2 354.2 503 357C516.5 360.5 554.5 362 564.5 358" stroke="black"/>
<path d="M313 406.963C325.333 403.963 354.4 398.863 372 402.463C389.6 406.063 422.667 405.296 437 404.463C453.667 402.13 489.7 398.163 500.5 400.963C514 404.463 552 405.963 562 401.963" stroke="black"/>
<path d="M394.5 143C375.167 160.333 334.4 194.9 326 194.5C317.6 194.1 265.833 238.333 241 260.5C227.333 273.167 196.7 300.4 183.5 308C167 317.5 137 333 121.5 349.5C106 366 87.5 379.5 79.5 391" stroke="black"/>
<path d="M317 224C358.333 271.333 470.6 361.1 601 369.5" stroke="black"/>
<path d="M316 156.5C276 228.5 184.6 377.6 139 398M311.5 224C285.5 310.5 215.5 485.2 143.5 492" stroke="black"/>
<path d="M311 241C352.333 288.333 467.6 385.1 598 393.5" stroke="black"/>
<path d="M18 332.5C25.5 336.5 117.927 269.28 144.941 249.83C159.857 238.661 193.169 214.779 207.092 208.601C224.494 200.877 255.95 188.598 273.09 173.809C290.23 159.019 307.842 151.601 317 141" stroke="black"/>
<ellipse cx="319" cy="63.4998" rx="10" ry="2.5" transform="rotate(2 319 63.4998)" fill="#2D343A"/>
<rect x="316" y="360" width="31" height="5" rx="1" fill="black"/>
<rect x="315" y="403" width="31" height="5" rx="1" fill="black"/>
<path d="M332.703 283.51L336.949 284.064L335.984 311.691L331.736 311.204L332.703 283.51ZM336.981 311.805L337.945 284.194L341.442 284.651L340.48 312.206L336.981 311.805ZM331.707 283.38L330.74 311.09L324.806 310.41L325.777 282.605L331.707 283.38ZM324.781 282.475L323.809 310.295L317.876 309.615L318.85 281.701L324.781 282.475Z" fill="#4B5B6B" stroke="black"/>
<rect x="298.373" y="90" width="31" height="5" rx="1" transform="rotate(61 298.373 90)" fill="black"/>
<rect x="392" y="127" width="6" height="11" rx="3" fill="#031E43"/>
<rect x="362" y="121" width="6" height="11" rx="3" fill="#031E43"/>
<path d="M46 359.5C79 339.333 149 294.6 165 277C185 255 276.5 191 291.5 188C306.5 185 361.5 139.5 365.5 135.5" stroke="black"/>
<path d="M315.5 400.002C307.1 399.651 255.333 438.533 230.5 458.019C216.833 469.153 186.2 493.092 173 499.773C156.5 508.123 126.5 521.748 111 536.252C95.5 550.756 77 562.623 69 572.732" stroke="black"/>
<path d="M10.0101 521.627C17.5101 525.14 109.937 466.109 136.951 449.029C151.867 439.221 185.18 418.249 199.102 412.823C216.504 406.041 247.96 395.258 265.1 382.27C282.24 369.282 295.842 372.809 305 363.5" stroke="black"/>
<path d="M80 486.602C115.186 473.728 190.061 444.724 208.073 431.705C230.588 415.43 298.757 383.008 314 382.5" stroke="black"/>
<rect x="333" y="116" width="6" height="11" rx="3" fill="#031E43"/>
<path d="M393.5 175.5L391 310M385.5 194L381.5 315.5M354.5 327.5L370 194" stroke="black"/>
</g>
<mask id="mask1" mask-type="alpha" maskUnits="userSpaceOnUse" x="295" y="61" width="32" height="498">
<path d="M319 68.5L302.5 551" stroke="#3C1A1A" stroke-width="14" stroke-linecap="round"/>
</mask>
<g mask="url(#mask1)">
<path d="M303 262C309.333 264.833 324.8 268.2 336 259" stroke="#838383" stroke-width="4"/>
<path d="M298 310C304.333 312.833 319.8 316.2 331 307" stroke="#838383" stroke-width="4"/>
<path d="M306 171C312.333 173.833 327.8 177.2 339 168" stroke="#838383" stroke-width="4"/>
<path d="M309 123C315.333 125.833 330.8 129.2 342 120" stroke="#838383" stroke-width="4"/>
<path d="M308 141C314.333 143.833 329.8 147.2 341 138" stroke="#838383" stroke-width="4"/>
<path d="M306 154C312.333 156.833 327.8 160.2 339 151" stroke="#838383" stroke-width="4"/>
<path d="M294 358C300.333 360.833 315.8 364.2 327 355" stroke="#838383" stroke-width="4"/>
<path d="M297 222C303.333 224.833 318.8 228.2 330 219" stroke="#838383" stroke-width="4"/>
<path d="M291 383C297.333 385.833 312.8 389.2 324 380" stroke="#838383" stroke-width="4"/>
<path d="M291 401C297.333 403.833 312.8 407.2 324 398" stroke="#838383" stroke-width="4"/>
<path d="M288 438C294.333 440.833 309.8 444.2 321 435" stroke="#838383" stroke-width="4"/>
<path d="M286 468C292.333 470.833 307.8 474.2 319 465" stroke="#838383" stroke-width="4"/>
<path d="M283 486C289.333 488.833 304.8 492.2 316 483" stroke="#838383" stroke-width="4"/>
</g>
</g>
<defs>
<linearGradient id="paint0_linear" x1="290.5" y1="0" x2="290.5" y2="499" gradientUnits="userSpaceOnUse">
<stop stop-color="#DFE7FF"/>
<stop offset="1" stop-color="#AFC2D8"/>
</linearGradient>
<linearGradient id="paint1_linear" x1="290.5" y1="0" x2="290.5" y2="499" gradientUnits="userSpaceOnUse">
<stop stop-color="#9556BD"/>
<stop offset="1" stop-color="#FD59C0"/>
</linearGradient>
<clipPath id="clip0">
<rect width="581" height="499" fill="white"/>
</clipPath>
</defs>
</svg>
