<svg width="40" height="40" viewBox="0 0 40 40" fill="none" xmlns="http://www.w3.org/2000/svg">
<path fill-rule="evenodd" clip-rule="evenodd" d="M35 20C35 28.2843 28.2843 35 20 35C11.7157 35 5 28.2843 5 20C5 11.7157 11.7157 5 20 5H35V20ZM19.9785 32.5931C26.9216 32.5931 32.5501 26.9646 32.5501 20.0215V7.44986H19.9785C13.0354 7.44986 7.40688 13.0784 7.40688 20.0215C7.40688 26.9646 13.0354 32.5931 19.9785 32.5931Z" fill="black"/>
<path fill-rule="evenodd" clip-rule="evenodd" d="M29.1547 20.0214C29.1547 25.0893 25.0464 29.1977 19.9785 29.1977C14.9106 29.1977 10.8022 25.0893 10.8022 20.0214C10.8022 14.9535 14.9106 10.8452 19.9785 10.8452C25.0464 10.8452 29.1547 14.9535 29.1547 20.0214ZM20 26.8767C23.7979 26.8767 26.8767 23.7979 26.8767 19.9999C26.8767 16.202 23.7979 13.1232 20 13.1232C16.202 13.1232 13.1232 16.202 13.1232 19.9999C13.1232 23.7979 16.202 26.8767 20 26.8767Z" fill="black"/>
<circle cx="20.0001" cy="20.0001" r="2.149" fill="black"/>
</svg>
